STARTFONT 2.1
FONT -URW-ITC Avant Garde-Demi-O-Normal-Sans-10-100-72-72-P-56-ISO8859-1
SIZE 10 72 72
FONTBOUNDINGBOX 16 13 -3 -3

STARTPROPERTIES 22
FONTNAME_REGISTRY "-"
FOUNDRY "URW"
FAMILY_NAME "ITC Avant Garde"
WEIGHT_NAME "Demi"
SLANT "O"
SETWIDTH_NAME "Normal"
ADD_STYLE_NAME "Sans"
PIXEL_SIZE 10
POINT_SIZE 100
RESOLUTION_X 72
RESOLUTION_Y 72
SPACING "P"
CHARSET_REGISTRY "ISO8859"
CHARSET_ENCODING "1"
FULL_NAME "AvantGarde-DemiOblique"
AVERAGE_WIDTH 56
WEIGHT 10
X_HEIGHT 6
QUAD_WIDTH 6
DEFAULT_CHAR 32
FONT_DESCENT 3
FONT_ASCENT 10
ENDPROPERTIES

CHARS 190

STARTCHAR space
ENCODING 32
SWIDTH 280 0
DWIDTH 3 0
BBX 1 1 0 0
BITMAP
00
ENDCHAR

STARTCHAR exclam
ENCODING 33
SWIDTH 280 0
DWIDTH 3 0
BBX 3 8 1 0
BITMAP
60
40
40
40
40
C0
00
C0
ENDCHAR

STARTCHAR quotedbl
ENCODING 34
SWIDTH 360 0
DWIDTH 4 0
BBX 3 2 2 6
BITMAP
E0
C0
ENDCHAR

STARTCHAR numbersign
ENCODING 35
SWIDTH 560 0
DWIDTH 6 0
BBX 5 8 1 0
BITMAP
28
28
78
50
F8
50
A0
A0
ENDCHAR

STARTCHAR dollar
ENCODING 36
SWIDTH 560 0
DWIDTH 6 0
BBX 5 9 1 -1
BITMAP
10
30
48
60
30
10
90
60
40
ENDCHAR

STARTCHAR percent
ENCODING 37
SWIDTH 860 0
DWIDTH 9 0
BBX 8 8 1 0
BITMAP
72
94
98
E8
17
19
29
4E
ENDCHAR

STARTCHAR ampersand
ENCODING 38
SWIDTH 680 0
DWIDTH 7 0
BBX 7 8 1 0
BITMAP
10
28
28
30
76
DC
98
66
ENDCHAR

STARTCHAR quoteright
ENCODING 39
SWIDTH 280 0
DWIDTH 3 0
BBX 2 3 2 5
BITMAP
C0
C0
80
ENDCHAR

STARTCHAR parenleft
ENCODING 40
SWIDTH 380 0
DWIDTH 4 0
BBX 4 10 1 -2
BITMAP
10
20
60
C0
C0
80
80
C0
40
40
ENDCHAR

STARTCHAR parenright
ENCODING 41
SWIDTH 380 0
DWIDTH 4 0
BBX 4 10 0 -2
BITMAP
40
60
20
30
10
30
20
60
C0
80
ENDCHAR

STARTCHAR asterisk
ENCODING 42
SWIDTH 440 0
DWIDTH 4 0
BBX 3 3 2 4
BITMAP
60
E0
40
ENDCHAR

STARTCHAR plus
ENCODING 43
SWIDTH 600 0
DWIDTH 6 0
BBX 5 3 1 1
BITMAP
30
F8
20
ENDCHAR

STARTCHAR comma
ENCODING 44
SWIDTH 280 0
DWIDTH 3 0
BBX 2 3 0 -2
BITMAP
C0
40
80
ENDCHAR

STARTCHAR minus
ENCODING 45
SWIDTH 600 0
DWIDTH 6 0
BBX 5 1 1 3
BITMAP
F8
ENDCHAR

STARTCHAR period
ENCODING 46
SWIDTH 280 0
DWIDTH 3 0
BBX 1 1 1 0
BITMAP
80
ENDCHAR

STARTCHAR slash
ENCODING 47
SWIDTH 460 0
DWIDTH 5 0
BBX 6 10 0 -2
BITMAP
04
08
08
10
10
20
20
40
40
80
ENDCHAR

STARTCHAR zero
ENCODING 48
SWIDTH 560 0
DWIDTH 6 0
BBX 6 8 1 0
BITMAP
38
64
44
C4
8C
88
98
70
ENDCHAR

STARTCHAR one
ENCODING 49
SWIDTH 560 0
DWIDTH 6 0
BBX 3 8 2 0
BITMAP
E0
20
40
40
40
C0
80
80
ENDCHAR

STARTCHAR two
ENCODING 50
SWIDTH 560 0
DWIDTH 6 0
BBX 6 8 0 0
BITMAP
38
6C
0C
18
30
60
C0
F8
ENDCHAR

STARTCHAR three
ENCODING 51
SWIDTH 560 0
DWIDTH 6 0
BBX 5 8 1 0
BITMAP
30
48
08
30
18
08
98
70
ENDCHAR

STARTCHAR four
ENCODING 52
SWIDTH 560 0
DWIDTH 6 0
BBX 6 8 0 0
BITMAP
0C
18
18
28
68
C8
FC
10
ENDCHAR

STARTCHAR five
ENCODING 53
SWIDTH 560 0
DWIDTH 6 0
BBX 5 8 1 0
BITMAP
38
20
40
70
48
08
98
70
ENDCHAR

STARTCHAR six
ENCODING 54
SWIDTH 560 0
DWIDTH 6 0
BBX 5 8 1 0
BITMAP
18
30
60
70
D8
88
D8
70
ENDCHAR

STARTCHAR seven
ENCODING 55
SWIDTH 560 0
DWIDTH 6 0
BBX 6 8 1 0
BITMAP
7C
08
10
10
20
20
40
C0
ENDCHAR

STARTCHAR eight
ENCODING 56
SWIDTH 560 0
DWIDTH 6 0
BBX 5 8 1 0
BITMAP
30
68
48
70
D8
88
D8
70
ENDCHAR

STARTCHAR nine
ENCODING 57
SWIDTH 560 0
DWIDTH 6 0
BBX 5 8 1 0
BITMAP
70
D8
88
D8
70
30
60
C0
ENDCHAR

STARTCHAR colon
ENCODING 58
SWIDTH 280 0
DWIDTH 3 0
BBX 2 6 1 0
BITMAP
40
00
00
00
00
C0
ENDCHAR

STARTCHAR semicolon
ENCODING 59
SWIDTH 280 0
DWIDTH 3 0
BBX 3 8 0 -2
BITMAP
60
00
00
00
00
C0
40
80
ENDCHAR

STARTCHAR less
ENCODING 60
SWIDTH 600 0
DWIDTH 6 0
BBX 6 6 1 0
BITMAP
04
18
E0
C0
30
08
ENDCHAR

STARTCHAR equal
ENCODING 61
SWIDTH 600 0
DWIDTH 6 0
BBX 6 3 1 3
BITMAP
FC
00
F8
ENDCHAR

STARTCHAR greater
ENCODING 62
SWIDTH 600 0
DWIDTH 6 0
BBX 6 6 1 0
BITMAP
40
70
1C
18
60
80
ENDCHAR

STARTCHAR question
ENCODING 63
SWIDTH 560 0
DWIDTH 6 0
BBX 4 8 1 0
BITMAP
60
90
10
20
40
40
00
40
ENDCHAR

STARTCHAR at
ENCODING 64
SWIDTH 740 0
DWIDTH 7 0
BBX 8 8 1 0
BITMAP
1E
61
9D
A5
A9
BE
80
7C
ENDCHAR

STARTCHAR A
ENCODING 65
SWIDTH 740 0
DWIDTH 7 0
BBX 7 8 0 0
BITMAP
08
0C
14
14
24
3E
42
C2
ENDCHAR

STARTCHAR B
ENCODING 66
SWIDTH 580 0
DWIDTH 6 0
BBX 5 8 1 0
BITMAP
78
48
48
70
48
C8
C8
F0
ENDCHAR

STARTCHAR C
ENCODING 67
SWIDTH 780 0
DWIDTH 8 0
BBX 8 8 1 0
BITMAP
1E
63
40
C0
80
C0
C6
78
ENDCHAR

STARTCHAR D
ENCODING 68
SWIDTH 700 0
DWIDTH 7 0
BBX 7 8 1 0
BITMAP
78
44
46
46
46
C4
C8
F0
ENDCHAR

STARTCHAR E
ENCODING 69
SWIDTH 520 0
DWIDTH 5 0
BBX 5 8 1 0
BITMAP
78
40
40
78
40
C0
C0
F0
ENDCHAR

STARTCHAR F
ENCODING 70
SWIDTH 480 0
DWIDTH 5 0
BBX 5 8 1 0
BITMAP
78
40
40
70
40
C0
C0
80
ENDCHAR

STARTCHAR G
ENCODING 71
SWIDTH 840 0
DWIDTH 8 0
BBX 8 8 1 0
BITMAP
1E
63
40
C0
9F
C2
C6
78
ENDCHAR

STARTCHAR H
ENCODING 72
SWIDTH 680 0
DWIDTH 7 0
BBX 7 8 1 0
BITMAP
66
44
44
7C
4C
CC
CC
88
ENDCHAR

STARTCHAR I
ENCODING 73
SWIDTH 280 0
DWIDTH 3 0
BBX 3 8 1 0
BITMAP
60
40
40
40
40
C0
C0
80
ENDCHAR

STARTCHAR J
ENCODING 74
SWIDTH 480 0
DWIDTH 5 0
BBX 5 8 0 0
BITMAP
08
08
18
18
10
10
10
E0
ENDCHAR

STARTCHAR K
ENCODING 75
SWIDTH 620 0
DWIDTH 6 0
BBX 6 8 1 0
BITMAP
64
48
50
60
60
D0
90
88
ENDCHAR

STARTCHAR L
ENCODING 76
SWIDTH 440 0
DWIDTH 4 0
BBX 4 8 1 0
BITMAP
60
60
40
40
40
C0
C0
F0
ENDCHAR

STARTCHAR M
ENCODING 77
SWIDTH 900 0
DWIDTH 9 0
BBX 9 8 1 0
BITMAP
6180
6380
7380
7700
5500
DD00
D900
9300
ENDCHAR

STARTCHAR N
ENCODING 78
SWIDTH 740 0
DWIDTH 7 0
BBX 8 8 1 0
BITMAP
63
63
52
56
D6
CC
8C
8C
ENDCHAR

STARTCHAR O
ENCODING 79
SWIDTH 840 0
DWIDTH 8 0
BBX 8 8 1 0
BITMAP
1C
62
43
C3
83
C2
C6
78
ENDCHAR

STARTCHAR P
ENCODING 80
SWIDTH 560 0
DWIDTH 6 0
BBX 6 8 1 0
BITMAP
78
4C
4C
48
70
C0
C0
80
ENDCHAR

STARTCHAR Q
ENCODING 81
SWIDTH 840 0
DWIDTH 8 0
BBX 8 8 1 0
BITMAP
1E
73
61
C1
B3
CA
C6
7B
ENDCHAR

STARTCHAR R
ENCODING 82
SWIDTH 580 0
DWIDTH 6 0
BBX 6 8 1 0
BITMAP
78
4C
4C
78
70
D0
D8
88
ENDCHAR

STARTCHAR S
ENCODING 83
SWIDTH 520 0
DWIDTH 5 0
BBX 5 8 0 0
BITMAP
38
48
40
30
18
88
98
70
ENDCHAR

STARTCHAR T
ENCODING 84
SWIDTH 420 0
DWIDTH 4 0
BBX 4 8 1 0
BITMAP
F0
60
60
40
40
40
C0
C0
ENDCHAR

STARTCHAR U
ENCODING 85
SWIDTH 640 0
DWIDTH 6 0
BBX 6 8 1 0
BITMAP
4C
4C
CC
C8
C8
88
98
70
ENDCHAR

STARTCHAR V
ENCODING 86
SWIDTH 700 0
DWIDTH 7 0
BBX 7 8 1 0
BITMAP
C6
C4
C8
48
50
50
60
60
ENDCHAR

STARTCHAR W
ENCODING 87
SWIDTH 900 0
DWIDTH 9 0
BBX 9 8 1 0
BITMAP
8980
D900
DB00
DA00
6A00
6E00
6C00
4C00
ENDCHAR

STARTCHAR X
ENCODING 88
SWIDTH 680 0
DWIDTH 7 0
BBX 8 8 0 0
BITMAP
23
26
14
18
18
28
64
C6
ENDCHAR

STARTCHAR Y
ENCODING 89
SWIDTH 620 0
DWIDTH 6 0
BBX 6 8 1 0
BITMAP
84
48
50
70
20
60
60
60
ENDCHAR

STARTCHAR Z
ENCODING 90
SWIDTH 500 0
DWIDTH 5 0
BBX 6 8 0 0
BITMAP
7C
08
18
10
20
60
40
F8
ENDCHAR

STARTCHAR bracketleft
ENCODING 91
SWIDTH 320 0
DWIDTH 3 0
BBX 3 10 1 -2
BITMAP
20
40
40
40
80
80
80
80
C0
40
ENDCHAR

STARTCHAR backslash
ENCODING 92
SWIDTH 640 0
DWIDTH 6 0
BBX 3 8 2 0
BITMAP
80
80
40
40
40
40
20
20
ENDCHAR

STARTCHAR bracketright
ENCODING 93
SWIDTH 320 0
DWIDTH 3 0
BBX 3 10 0 -2
BITMAP
40
20
20
20
20
20
60
40
C0
80
ENDCHAR

STARTCHAR asciicircum
ENCODING 94
SWIDTH 600 0
DWIDTH 6 0
BBX 5 5 1 3
BITMAP
30
30
50
50
88
ENDCHAR

STARTCHAR underscore
ENCODING 95
SWIDTH 500 0
DWIDTH 5 0
BBX 5 1 0 -2
BITMAP
F8
ENDCHAR

STARTCHAR quoteleft
ENCODING 96
SWIDTH 280 0
DWIDTH 3 0
BBX 2 3 2 5
BITMAP
40
C0
80
ENDCHAR

STARTCHAR a
ENCODING 97
SWIDTH 660 0
DWIDTH 7 0
BBX 6 6 1 0
BITMAP
34
6C
C4
84
CC
74
ENDCHAR

STARTCHAR b
ENCODING 98
SWIDTH 660 0
DWIDTH 7 0
BBX 6 8 1 0
BITMAP
60
40
58
64
44
C4
CC
B8
ENDCHAR

STARTCHAR c
ENCODING 99
SWIDTH 640 0
DWIDTH 6 0
BBX 6 6 1 0
BITMAP
38
44
C0
80
C4
78
ENDCHAR

STARTCHAR d
ENCODING 100
SWIDTH 660 0
DWIDTH 7 0
BBX 7 8 1 0
BITMAP
06
04
3C
4C
C4
84
CC
78
ENDCHAR

STARTCHAR e
ENCODING 101
SWIDTH 640 0
DWIDTH 6 0
BBX 6 6 1 0
BITMAP
38
4C
FC
80
C8
70
ENDCHAR

STARTCHAR f
ENCODING 102
SWIDTH 280 0
DWIDTH 3 0
BBX 4 8 1 0
BITMAP
30
40
E0
40
40
C0
C0
80
ENDCHAR

STARTCHAR g
ENCODING 103
SWIDTH 660 0
DWIDTH 7 0
BBX 7 8 0 -2
BITMAP
3E
66
44
C4
4C
74
08
F0
ENDCHAR

STARTCHAR h
ENCODING 104
SWIDTH 600 0
DWIDTH 6 0
BBX 6 8 1 0
BITMAP
60
60
78
4C
4C
C8
C8
88
ENDCHAR

STARTCHAR i
ENCODING 105
SWIDTH 240 0
DWIDTH 2 0
BBX 3 8 1 0
BITMAP
60
00
40
40
40
C0
C0
80
ENDCHAR

STARTCHAR j
ENCODING 106
SWIDTH 260 0
DWIDTH 3 0
BBX 4 10 0 -2
BITMAP
30
00
20
20
20
60
40
40
40
80
ENDCHAR

STARTCHAR k
ENCODING 107
SWIDTH 580 0
DWIDTH 6 0
BBX 6 8 1 0
BITMAP
60
40
4C
50
60
E0
90
88
ENDCHAR

STARTCHAR l
ENCODING 108
SWIDTH 240 0
DWIDTH 2 0
BBX 3 8 1 0
BITMAP
60
40
40
40
40
C0
C0
80
ENDCHAR

STARTCHAR m
ENCODING 109
SWIDTH 940 0
DWIDTH 9 0
BBX 9 6 1 0
BITMAP
7B80
4C80
4880
C980
C980
9900
ENDCHAR

STARTCHAR n
ENCODING 110
SWIDTH 600 0
DWIDTH 6 0
BBX 6 6 1 0
BITMAP
78
4C
4C
C8
C8
88
ENDCHAR

STARTCHAR o
ENCODING 111
SWIDTH 640 0
DWIDTH 6 0
BBX 6 6 1 0
BITMAP
38
4C
C4
8C
C8
70
ENDCHAR

STARTCHAR p
ENCODING 112
SWIDTH 660 0
DWIDTH 7 0
BBX 7 8 0 -2
BITMAP
7C
66
46
46
44
F8
C0
80
ENDCHAR

STARTCHAR q
ENCODING 113
SWIDTH 660 0
DWIDTH 7 0
BBX 6 8 1 -2
BITMAP
3C
4C
C4
8C
CC
78
08
08
ENDCHAR

STARTCHAR r
ENCODING 114
SWIDTH 320 0
DWIDTH 3 0
BBX 4 6 1 0
BITMAP
70
40
40
C0
C0
80
ENDCHAR

STARTCHAR s
ENCODING 115
SWIDTH 440 0
DWIDTH 4 0
BBX 4 6 0 0
BITMAP
30
40
60
30
10
E0
ENDCHAR

STARTCHAR t
ENCODING 116
SWIDTH 300 0
DWIDTH 3 0
BBX 3 8 1 0
BITMAP
60
40
E0
40
40
C0
C0
80
ENDCHAR

STARTCHAR u
ENCODING 117
SWIDTH 600 0
DWIDTH 6 0
BBX 6 6 1 0
BITMAP
4C
C8
C8
88
98
F8
ENDCHAR

STARTCHAR v
ENCODING 118
SWIDTH 560 0
DWIDTH 6 0
BBX 5 6 1 0
BITMAP
88
98
D0
70
60
40
ENDCHAR

STARTCHAR w
ENCODING 119
SWIDTH 800 0
DWIDTH 8 0
BBX 8 6 1 0
BITMAP
93
DA
EC
6C
48
48
ENDCHAR

STARTCHAR x
ENCODING 120
SWIDTH 560 0
DWIDTH 6 0
BBX 6 6 0 0
BITMAP
64
28
10
30
68
C8
ENDCHAR

STARTCHAR y
ENCODING 121
SWIDTH 580 0
DWIDTH 6 0
BBX 6 8 1 -2
BITMAP
CC
48
50
50
60
60
40
C0
ENDCHAR

STARTCHAR z
ENCODING 122
SWIDTH 460 0
DWIDTH 5 0
BBX 5 6 0 0
BITMAP
78
10
30
60
40
F0
ENDCHAR

STARTCHAR braceleft
ENCODING 123
SWIDTH 340 0
DWIDTH 3 0
BBX 3 10 1 -2
BITMAP
20
40
40
40
C0
40
40
40
80
C0
ENDCHAR

STARTCHAR bar
ENCODING 124
SWIDTH 600 0
DWIDTH 6 0
BBX 3 8 2 0
BITMAP
60
40
40
40
40
C0
80
80
ENDCHAR

STARTCHAR braceright
ENCODING 125
SWIDTH 340 0
DWIDTH 3 0
BBX 3 10 0 -2
BITMAP
60
20
40
40
40
60
40
40
40
80
ENDCHAR

STARTCHAR asciitilde
ENCODING 126
SWIDTH 600 0
DWIDTH 6 0
BBX 5 2 1 2
BITMAP
68
B8
ENDCHAR

STARTCHAR exclamdown
ENCODING 161
SWIDTH 280 0
DWIDTH 3 0
BBX 3 8 0 -2
BITMAP
60
00
40
40
40
C0
C0
80
ENDCHAR

STARTCHAR cent
ENCODING 162
SWIDTH 560 0
DWIDTH 6 0
BBX 5 5 1 3
BITMAP
30
78
80
F8
60
ENDCHAR

STARTCHAR sterling
ENCODING 163
SWIDTH 560 0
DWIDTH 6 0
BBX 6 8 0 0
BITMAP
38
6C
40
F0
60
20
6C
F8
ENDCHAR

STARTCHAR currency
ENCODING 164
SWIDTH 560 0
DWIDTH 6 0
BBX 6 5 1 1
BITMAP
7C
48
48
48
F8
ENDCHAR

STARTCHAR yen
ENCODING 165
SWIDTH 560 0
DWIDTH 6 0
BBX 7 8 1 0
BITMAP
46
44
48
48
FC
30
F8
20
ENDCHAR

STARTCHAR brokenbar
ENCODING 166
SWIDTH 600 0
DWIDTH 6 0
BBX 3 8 2 0
BITMAP
60
40
40
40
00
C0
80
80
ENDCHAR

STARTCHAR section
ENCODING 167
SWIDTH 560 0
DWIDTH 6 0
BBX 5 10 1 -2
BITMAP
38
40
60
90
88
48
30
10
90
60
ENDCHAR

STARTCHAR dieresis
ENCODING 168
SWIDTH 500 0
DWIDTH 5 0
BBX 3 1 2 7
BITMAP
A0
ENDCHAR

STARTCHAR copyright
ENCODING 169
SWIDTH 740 0
DWIDTH 7 0
BBX 8 8 0 0
BITMAP
1E
63
59
A1
A1
B9
C2
7C
ENDCHAR

STARTCHAR ordfeminine
ENCODING 170
SWIDTH 360 0
DWIDTH 4 0
BBX 4 5 1 3
BITMAP
70
90
90
60
E0
ENDCHAR

STARTCHAR guillemotleft
ENCODING 171
SWIDTH 460 0
DWIDTH 5 0
BBX 4 4 1 1
BITMAP
50
B0
A0
B0
ENDCHAR

STARTCHAR logicalnot
ENCODING 172
SWIDTH 600 0
DWIDTH 6 0
BBX 5 2 1 2
BITMAP
F8
10
ENDCHAR

STARTCHAR hyphen
ENCODING 173
SWIDTH 420 0
DWIDTH 4 0
BBX 3 1 1 2
BITMAP
E0
ENDCHAR

STARTCHAR registered
ENCODING 174
SWIDTH 740 0
DWIDTH 7 0
BBX 8 8 0 0
BITMAP
1E
7F
55
BD
A9
A6
C6
78
ENDCHAR

STARTCHAR macron
ENCODING 175
SWIDTH 420 0
DWIDTH 4 0
BBX 3 1 2 7
BITMAP
E0
ENDCHAR

STARTCHAR degree
ENCODING 176
SWIDTH 400 0
DWIDTH 6 0
BBX 3 3 2 4
BITMAP
E0
A0
E0
ENDCHAR

STARTCHAR plusminus
ENCODING 177
SWIDTH 600 0
DWIDTH 6 0
BBX 6 6 0 0
BITMAP
10
7C
30
00
00
FC
ENDCHAR

STARTCHAR twosuperior
ENCODING 178
SWIDTH 336 0
DWIDTH 3 0
BBX 3 4 -1 4
BITMAP
E0
20
40
E0
ENDCHAR

STARTCHAR threesuperior
ENCODING 179
SWIDTH 336 0
DWIDTH 3 0
BBX 3 4 -2 4
BITMAP
E0
40
20
E0
ENDCHAR

STARTCHAR acute
ENCODING 180
SWIDTH 420 0
DWIDTH 4 0
BBX 3 2 2 6
BITMAP
60
80
ENDCHAR

STARTCHAR mu
ENCODING 181
SWIDTH 576 0
DWIDTH 6 0
BBX 6 8 0 -2
BITMAP
24
64
44
4C
48
F8
80
80
ENDCHAR

STARTCHAR paragraph
ENCODING 182
SWIDTH 600 0
DWIDTH 6 0
BBX 5 10 1 -2
BITMAP
78
E8
E8
E8
28
70
50
50
50
50
ENDCHAR

STARTCHAR periodcentered
ENCODING 183
SWIDTH 280 0
DWIDTH 3 0
BBX 1 1 2 3
BITMAP
80
ENDCHAR

STARTCHAR cedilla
ENCODING 184
SWIDTH 340 0
DWIDTH 3 0
BBX 2 3 0 -3
BITMAP
40
C0
C0
ENDCHAR

STARTCHAR onesuperior
ENCODING 185
SWIDTH 336 0
DWIDTH 3 0
BBX 2 4 -3 4
BITMAP
C0
80
80
80
ENDCHAR

STARTCHAR ordmasculine
ENCODING 186
SWIDTH 360 0
DWIDTH 4 0
BBX 4 5 1 3
BITMAP
60
90
90
60
E0
ENDCHAR

STARTCHAR guillemotright
ENCODING 187
SWIDTH 460 0
DWIDTH 5 0
BBX 4 4 1 1
BITMAP
50
D0
F0
A0
ENDCHAR

STARTCHAR onequarter
ENCODING 188
SWIDTH 840 0
DWIDTH 8 0
BBX 7 8 3 0
BITMAP
C4
88
88
90
12
26
2E
42
ENDCHAR

STARTCHAR onehalf
ENCODING 189
SWIDTH 840 0
DWIDTH 8 0
BBX 7 8 3 0
BITMAP
C4
88
88
90
1E
22
24
4E
ENDCHAR

STARTCHAR threequarters
ENCODING 190
SWIDTH 840 0
DWIDTH 8 0
BBX 8 8 4 0
BITMAP
62
64
24
E8
09
13
17
21
ENDCHAR

STARTCHAR questiondown
ENCODING 191
SWIDTH 560 0
DWIDTH 6 0
BBX 5 8 1 -2
BITMAP
20
00
20
20
40
80
98
70
ENDCHAR

STARTCHAR Agrave
ENCODING 192
SWIDTH 740 0
DWIDTH 7 0
BBX 7 10 0 0
BITMAP
08
06
08
0C
14
14
24
3E
42
C2
ENDCHAR

STARTCHAR Aacute
ENCODING 193
SWIDTH 740 0
DWIDTH 7 0
BBX 7 10 0 0
BITMAP
06
08
08
0C
14
14
24
3E
42
C2
ENDCHAR

STARTCHAR Acircumflex
ENCODING 194
SWIDTH 740 0
DWIDTH 7 0
BBX 7 10 0 0
BITMAP
0C
1E
08
0C
14
14
24
3E
42
C2
ENDCHAR

STARTCHAR Atilde
ENCODING 195
SWIDTH 740 0
DWIDTH 7 0
BBX 7 9 0 0
BITMAP
0E
08
0C
14
14
24
3E
42
C2
ENDCHAR

STARTCHAR Adieresis
ENCODING 196
SWIDTH 740 0
DWIDTH 7 0
BBX 7 9 0 0
BITMAP
0A
08
0C
14
14
24
3E
42
C2
ENDCHAR

STARTCHAR Aring
ENCODING 197
SWIDTH 740 0
DWIDTH 7 0
BBX 7 10 0 0
BITMAP
0C
0C
08
0C
14
14
24
3E
42
C2
ENDCHAR

STARTCHAR AE
ENCODING 198
SWIDTH 900 0
DWIDTH 9 0
BBX 10 8 0 0
BITMAP
03C0
0600
0A00
1F80
1E00
2400
6400
C780
ENDCHAR

STARTCHAR Ccedilla
ENCODING 199
SWIDTH 780 0
DWIDTH 8 0
BBX 8 11 1 -3
BITMAP
1E
63
40
C0
80
C0
C6
78
10
08
38
ENDCHAR

STARTCHAR Egrave
ENCODING 200
SWIDTH 520 0
DWIDTH 5 0
BBX 5 10 1 0
BITMAP
20
10
78
40
40
78
40
C0
C0
F0
ENDCHAR

STARTCHAR Eacute
ENCODING 201
SWIDTH 520 0
DWIDTH 5 0
BBX 5 10 1 0
BITMAP
18
20
78
40
40
78
40
C0
C0
F0
ENDCHAR

STARTCHAR Ecircumflex
ENCODING 202
SWIDTH 520 0
DWIDTH 5 0
BBX 5 10 1 0
BITMAP
30
78
78
40
40
78
40
C0
C0
F0
ENDCHAR

STARTCHAR Edieresis
ENCODING 203
SWIDTH 520 0
DWIDTH 5 0
BBX 5 9 1 0
BITMAP
28
78
40
40
78
40
C0
C0
F0
ENDCHAR

STARTCHAR Igrave
ENCODING 204
SWIDTH 280 0
DWIDTH 3 0
BBX 4 10 1 0
BITMAP
40
30
60
40
40
40
40
C0
C0
80
ENDCHAR

STARTCHAR Iacute
ENCODING 205
SWIDTH 280 0
DWIDTH 3 0
BBX 4 10 1 0
BITMAP
30
40
60
40
40
40
40
C0
C0
80
ENDCHAR

STARTCHAR Icircumflex
ENCODING 206
SWIDTH 280 0
DWIDTH 3 0
BBX 4 10 1 0
BITMAP
60
F0
60
40
40
40
40
C0
C0
80
ENDCHAR

STARTCHAR Idieresis
ENCODING 207
SWIDTH 280 0
DWIDTH 3 0
BBX 4 9 1 0
BITMAP
50
60
40
40
40
40
C0
C0
80
ENDCHAR

STARTCHAR Eth
ENCODING 208
SWIDTH 742 0
DWIDTH 7 0
BBX 7 8 1 0
BITMAP
7C
66
46
F6
46
C4
CC
F0
ENDCHAR

STARTCHAR Ntilde
ENCODING 209
SWIDTH 740 0
DWIDTH 7 0
BBX 7 9 1 0
BITMAP
1C
62
62
52
56
56
CC
8C
8C
ENDCHAR

STARTCHAR Ograve
ENCODING 210
SWIDTH 840 0
DWIDTH 8 0
BBX 8 10 1 0
BITMAP
08
06
1C
62
43
C3
83
C2
C6
78
ENDCHAR

STARTCHAR Oacute
ENCODING 211
SWIDTH 840 0
DWIDTH 8 0
BBX 8 10 1 0
BITMAP
06
08
1C
62
43
C3
83
C2
C6
78
ENDCHAR

STARTCHAR Ocircumflex
ENCODING 212
SWIDTH 840 0
DWIDTH 8 0
BBX 8 10 1 0
BITMAP
0C
1E
1C
62
43
C3
83
C2
C6
78
ENDCHAR

STARTCHAR Otilde
ENCODING 213
SWIDTH 840 0
DWIDTH 8 0
BBX 8 9 1 0
BITMAP
1C
1C
62
43
C3
83
C2
C6
78
ENDCHAR

STARTCHAR Odieresis
ENCODING 214
SWIDTH 840 0
DWIDTH 8 0
BBX 8 9 1 0
BITMAP
14
1C
62
43
C3
83
C2
C6
78
ENDCHAR

STARTCHAR multiply
ENCODING 215
SWIDTH 600 0
DWIDTH 6 0
BBX 5 6 1 1
BITMAP
48
58
30
20
50
98
ENDCHAR

STARTCHAR Oslash
ENCODING 216
SWIDTH 840 0
DWIDTH 8 0
BBX 8 9 1 0
BITMAP
01
1E
66
4F
DB
B3
E2
C6
F8
ENDCHAR

STARTCHAR Ugrave
ENCODING 217
SWIDTH 640 0
DWIDTH 6 0
BBX 6 10 1 0
BITMAP
20
18
4C
4C
CC
C8
C8
88
98
70
ENDCHAR

STARTCHAR Uacute
ENCODING 218
SWIDTH 640 0
DWIDTH 6 0
BBX 6 10 1 0
BITMAP
18
20
4C
4C
CC
C8
C8
88
98
70
ENDCHAR

STARTCHAR Ucircumflex
ENCODING 219
SWIDTH 640 0
DWIDTH 6 0
BBX 6 10 1 0
BITMAP
18
3C
4C
4C
CC
C8
C8
88
98
70
ENDCHAR

STARTCHAR Udieresis
ENCODING 220
SWIDTH 640 0
DWIDTH 6 0
BBX 6 9 1 0
BITMAP
28
4C
4C
CC
C8
C8
88
98
70
ENDCHAR

STARTCHAR Yacute
ENCODING 221
SWIDTH 620 0
DWIDTH 6 0
BBX 6 10 1 0
BITMAP
18
20
84
48
50
70
20
60
60
60
ENDCHAR

STARTCHAR Thorn
ENCODING 222
SWIDTH 560 0
DWIDTH 6 0
BBX 5 8 1 0
BITMAP
60
60
78
48
48
C8
F0
C0
ENDCHAR

STARTCHAR germandbls
ENCODING 223
SWIDTH 600 0
DWIDTH 6 0
BBX 6 8 1 0
BITMAP
30
48
48
58
4C
4C
C8
B0
ENDCHAR

STARTCHAR agrave
ENCODING 224
SWIDTH 660 0
DWIDTH 7 0
BBX 6 8 1 0
BITMAP
10
0C
34
6C
C4
84
CC
74
ENDCHAR

STARTCHAR aacute
ENCODING 225
SWIDTH 660 0
DWIDTH 7 0
BBX 6 8 1 0
BITMAP
0C
10
34
6C
C4
84
CC
74
ENDCHAR

STARTCHAR acircumflex
ENCODING 226
SWIDTH 660 0
DWIDTH 7 0
BBX 6 8 1 0
BITMAP
18
24
34
6C
C4
84
CC
74
ENDCHAR

STARTCHAR atilde
ENCODING 227
SWIDTH 660 0
DWIDTH 7 0
BBX 6 7 1 0
BITMAP
38
34
6C
C4
84
CC
74
ENDCHAR

STARTCHAR adieresis
ENCODING 228
SWIDTH 660 0
DWIDTH 7 0
BBX 6 7 1 0
BITMAP
28
34
6C
C4
84
CC
74
ENDCHAR

STARTCHAR aring
ENCODING 229
SWIDTH 660 0
DWIDTH 7 0
BBX 6 8 1 0
BITMAP
18
18
34
4C
C4
84
CC
74
ENDCHAR

STARTCHAR ae
ENCODING 230
SWIDTH 1080 0
DWIDTH 11 0
BBX 10 6 1 0
BITMAP
3580
6E40
C7C0
8400
CE40
7580
ENDCHAR

STARTCHAR ccedilla
ENCODING 231
SWIDTH 640 0
DWIDTH 6 0
BBX 6 9 1 -3
BITMAP
38
44
C0
80
C4
78
20
10
70
ENDCHAR

STARTCHAR egrave
ENCODING 232
SWIDTH 640 0
DWIDTH 6 0
BBX 6 8 1 0
BITMAP
20
10
38
44
FC
80
88
70
ENDCHAR

STARTCHAR eacute
ENCODING 233
SWIDTH 640 0
DWIDTH 6 0
BBX 6 8 1 0
BITMAP
18
20
38
4C
FC
80
C8
70
ENDCHAR

STARTCHAR ecircumflex
ENCODING 234
SWIDTH 640 0
DWIDTH 6 0
BBX 6 8 1 0
BITMAP
18
24
38
44
FC
80
C8
70
ENDCHAR

STARTCHAR edieresis
ENCODING 235
SWIDTH 640 0
DWIDTH 6 0
BBX 6 7 1 0
BITMAP
28
38
44
FC
80
C8
70
ENDCHAR

STARTCHAR igrave
ENCODING 236
SWIDTH 240 0
DWIDTH 2 0
BBX 4 8 1 0
BITMAP
40
30
40
40
40
C0
C0
80
ENDCHAR

STARTCHAR iacute
ENCODING 237
SWIDTH 240 0
DWIDTH 2 0
BBX 4 8 1 0
BITMAP
30
40
40
40
40
C0
C0
80
ENDCHAR

STARTCHAR icircumflex
ENCODING 238
SWIDTH 240 0
DWIDTH 2 0
BBX 4 8 1 0
BITMAP
60
F0
40
40
40
C0
C0
80
ENDCHAR

STARTCHAR idieresis
ENCODING 239
SWIDTH 240 0
DWIDTH 2 0
BBX 3 7 1 0
BITMAP
A0
40
40
40
C0
C0
80
ENDCHAR

STARTCHAR eth
ENCODING 240
SWIDTH 640 0
DWIDTH 6 0
BBX 6 8 1 0
BITMAP
38
38
38
4C
C4
8C
C8
70
ENDCHAR

STARTCHAR ntilde
ENCODING 241
SWIDTH 600 0
DWIDTH 6 0
BBX 6 7 1 0
BITMAP
38
78
4C
4C
C8
C8
88
ENDCHAR

STARTCHAR ograve
ENCODING 242
SWIDTH 640 0
DWIDTH 6 0
BBX 6 8 1 0
BITMAP
20
10
38
4C
C4
8C
C8
70
ENDCHAR

STARTCHAR oacute
ENCODING 243
SWIDTH 640 0
DWIDTH 6 0
BBX 6 8 1 0
BITMAP
18
20
38
4C
C4
8C
C8
70
ENDCHAR

STARTCHAR ocircumflex
ENCODING 244
SWIDTH 640 0
DWIDTH 6 0
BBX 6 8 1 0
BITMAP
18
3C
38
4C
C4
8C
C8
70
ENDCHAR

STARTCHAR otilde
ENCODING 245
SWIDTH 640 0
DWIDTH 6 0
BBX 6 7 1 0
BITMAP
38
38
4C
C4
8C
C8
70
ENDCHAR

STARTCHAR odieresis
ENCODING 246
SWIDTH 640 0
DWIDTH 6 0
BBX 6 7 1 0
BITMAP
28
38
4C
C4
8C
C8
70
ENDCHAR

STARTCHAR divide
ENCODING 247
SWIDTH 600 0
DWIDTH 6 0
BBX 5 5 1 1
BITMAP
20
00
F8
00
40
ENDCHAR

STARTCHAR oslash
ENCODING 248
SWIDTH 660 0
DWIDTH 6 0
BBX 6 6 1 0
BITMAP
3C
4C
D4
AC
C8
F0
ENDCHAR

STARTCHAR ugrave
ENCODING 249
SWIDTH 600 0
DWIDTH 6 0
BBX 6 8 1 0
BITMAP
20
18
4C
C8
C8
88
98
F8
ENDCHAR

STARTCHAR uacute
ENCODING 250
SWIDTH 600 0
DWIDTH 6 0
BBX 6 8 1 0
BITMAP
18
20
4C
C8
C8
88
98
F8
ENDCHAR

STARTCHAR ucircumflex
ENCODING 251
SWIDTH 600 0
DWIDTH 6 0
BBX 6 8 1 0
BITMAP
30
78
4C
C8
C8
88
98
F8
ENDCHAR

STARTCHAR udieresis
ENCODING 252
SWIDTH 600 0
DWIDTH 6 0
BBX 6 7 1 0
BITMAP
28
4C
C8
C8
88
98
F8
ENDCHAR

STARTCHAR yacute
ENCODING 253
SWIDTH 580 0
DWIDTH 6 0
BBX 6 10 1 -2
BITMAP
18
20
CC
48
50
50
60
60
40
C0
ENDCHAR

STARTCHAR thorn
ENCODING 254
SWIDTH 660 0
DWIDTH 7 0
BBX 7 10 0 -2
BITMAP
20
60
7C
66
42
46
64
F8
C0
80
ENDCHAR

STARTCHAR ydieresis
ENCODING 255
SWIDTH 580 0
DWIDTH 6 0
BBX 6 9 1 -2
BITMAP
28
CC
48
50
50
60
60
40
C0
ENDCHAR
ENDFONT
